<svg width="24" height="24" viewBox="0 0 24 24" fill="none" xmlns="http://www.w3.org/2000/svg">
<path d="M12 2.99994C7.03128 2.99994 3.00003 7.03119 3.00003 11.9999C3.00003 16.9687 7.03128 20.9999 12 20.9999C16.9688 20.9999 21 16.9687 21 11.9999C21 7.03119 16.9688 2.99994 12 2.99994ZM11.7188 17.2499C11.5334 17.2499 11.3521 17.195 11.1979 17.0919C11.0438 16.9889 10.9236 16.8425 10.8526 16.6712C10.7817 16.4999 10.7631 16.3114 10.7993 16.1295C10.8355 15.9477 10.9248 15.7806 11.0559 15.6495C11.187 15.5184 11.354 15.4291 11.5359 15.393C11.7177 15.3568 11.9062 15.3753 12.0775 15.4463C12.2488 15.5173 12.3953 15.6374 12.4983 15.7916C12.6013 15.9458 12.6563 16.127 12.6563 16.3124C12.6563 16.5611 12.5575 16.7995 12.3817 16.9753C12.2059 17.1512 11.9674 17.2499 11.7188 17.2499ZM13.2863 12.4687C12.5264 12.9787 12.4219 13.446 12.4219 13.8749C12.4219 14.049 12.3528 14.2159 12.2297 14.339C12.1066 14.462 11.9397 14.5312 11.7656 14.5312C11.5916 14.5312 11.4247 14.462 11.3016 14.339C11.1785 14.2159 11.1094 14.049 11.1094 13.8749C11.1094 12.8479 11.5819 12.0313 12.5541 11.3784C13.4578 10.7718 13.9688 10.3874 13.9688 9.54228C13.9688 8.96759 13.6406 8.53119 12.9614 8.20822C12.8016 8.13228 12.4458 8.05822 12.008 8.06338C11.4586 8.07041 11.0321 8.20166 10.7035 8.46603C10.0838 8.96478 10.0313 9.50759 10.0313 9.51556C10.0271 9.60174 10.006 9.68626 9.96921 9.76429C9.93239 9.84232 9.88057 9.91233 9.81669 9.97033C9.75281 10.0283 9.67814 10.0732 9.59693 10.1023C9.51572 10.1315 9.42956 10.1443 9.34338 10.1402C9.2572 10.136 9.17269 10.1149 9.09466 10.0781C9.01663 10.0413 8.94661 9.98946 8.88861 9.92559C8.83061 9.86171 8.78576 9.78704 8.75662 9.70583C8.72748 9.62462 8.71462 9.53846 8.71878 9.45228C8.72393 9.33837 8.80315 8.31228 9.87987 7.44603C10.4381 6.99697 11.1483 6.76353 11.9892 6.75322C12.5846 6.74619 13.1438 6.84697 13.523 7.02603C14.6578 7.56275 15.2813 8.45759 15.2813 9.54228C15.2813 11.1281 14.2214 11.8401 13.2863 12.4687Z" fill="#0075FF"/>
</svg>
