<svg width="15" height="15" viewBox="0 0 15 15" fill="none" xmlns="http://www.w3.org/2000/svg">
<g clip-path="url(#clip0_1_463)">
<path d="M7.6629 2.96751C7.61928 2.92578 7.56125 2.9025 7.50089 2.9025C7.44052 2.9025 7.38249 2.92578 7.33887 2.96751L1.94532 8.11995C1.92241 8.14186 1.90419 8.16819 1.89175 8.19735C1.87932 8.2265 1.87292 8.25788 1.87296 8.28958L1.87208 13.1253C1.87208 13.374 1.97085 13.6124 2.14667 13.7882C2.32248 13.964 2.56094 14.0628 2.80958 14.0628H5.62501C5.74933 14.0628 5.86855 14.0134 5.95646 13.9255C6.04437 13.8376 6.09376 13.7184 6.09376 13.5941V9.60969C6.09376 9.54753 6.11845 9.48792 6.1624 9.44396C6.20636 9.40001 6.26597 9.37532 6.32813 9.37532H8.67188C8.73404 9.37532 8.79366 9.40001 8.83761 9.44396C8.88156 9.48792 8.90626 9.54753 8.90626 9.60969V13.5941C8.90626 13.7184 8.95564 13.8376 9.04355 13.9255C9.13146 14.0134 9.25069 14.0628 9.37501 14.0628H12.1893C12.4379 14.0628 12.6764 13.964 12.8522 13.7882C13.028 13.6124 13.1268 13.374 13.1268 13.1253V8.28958C13.1268 8.25788 13.1204 8.2265 13.108 8.19735C13.0955 8.16819 13.0773 8.14186 13.0544 8.11995L7.6629 2.96751Z" fill="#0075FF"/>
<path d="M14.3825 7.1537L12.1911 5.05722V1.87587C12.1911 1.75155 12.1417 1.63232 12.0538 1.54441C11.9659 1.45651 11.8466 1.40712 11.7223 1.40712H10.3161C10.1918 1.40712 10.0725 1.45651 9.98462 1.54441C9.89671 1.63232 9.84733 1.75155 9.84733 1.87587V2.81337L8.15045 1.19091C7.99166 1.03036 7.75553 0.93837 7.50036 0.93837C7.24606 0.93837 7.01051 1.03036 6.85172 1.1912L0.62028 7.15311C0.438054 7.3289 0.415202 7.61806 0.581022 7.80849C0.622662 7.85655 0.673648 7.89564 0.730875 7.92338C0.788103 7.95112 0.850376 7.96692 0.913905 7.96982C0.977434 7.97273 1.04089 7.96268 1.10041 7.94028C1.15993 7.91788 1.21427 7.88361 1.26012 7.83954L7.33922 2.03056C7.38284 1.98883 7.44087 1.96555 7.50123 1.96555C7.56159 1.96555 7.61963 1.98883 7.66325 2.03056L13.7429 7.83954C13.8325 7.92542 13.9524 7.97229 14.0765 7.96988C14.2006 7.96746 14.3186 7.91596 14.4047 7.82665C14.5846 7.64032 14.5697 7.3327 14.3825 7.1537Z" fill="#0075FF"/>
</g>
<defs>
<clipPath id="clip0_1_463">
<rect width="15" height="15" fill="white"/>
</clipPath>
</defs>
</svg>
