<svg width="15" height="15" viewBox="0 0 15 15" fill="none" xmlns="http://www.w3.org/2000/svg">
<path d="M0.93745 11.0152C0.93745 11.4503 1.1103 11.8676 1.41798 12.1753C1.72565 12.483 2.14295 12.6558 2.57807 12.6558H12.4218C12.8569 12.6558 13.2742 12.483 13.5819 12.1753C13.8896 11.8676 14.0624 11.4503 14.0624 11.0152V6.50349H0.93745V11.0152ZM2.87104 8.78865C2.87104 8.55555 2.96364 8.332 3.12847 8.16717C3.2933 8.00234 3.51685 7.90974 3.74995 7.90974H5.1562C5.3893 7.90974 5.61285 8.00234 5.77768 8.16717C5.94251 8.332 6.03511 8.55555 6.03511 8.78865V9.37459C6.03511 9.60769 5.94251 9.83124 5.77768 9.99607C5.61285 10.1609 5.3893 10.2535 5.1562 10.2535H3.74995C3.51685 10.2535 3.2933 10.1609 3.12847 9.99607C2.96364 9.83124 2.87104 9.60769 2.87104 9.37459V8.78865Z" fill="#0075FF"/>
<path d="M12.4218 2.34294H2.57807C2.14295 2.34294 1.72565 2.51579 1.41798 2.82347C1.1103 3.13115 0.93745 3.54845 0.93745 3.98357V4.74528H14.0624V3.98357C14.0624 3.54845 13.8896 3.13115 13.5819 2.82347C13.2742 2.51579 12.8569 2.34294 12.4218 2.34294V2.34294Z" fill="#0075FF"/>
</svg>
