<svg width="15" height="15" viewBox="0 0 15 15" fill="none" xmlns="http://www.w3.org/2000/svg">
<path d="M13.9934 1.12157C13.988 1.09566 13.9754 1.07181 13.957 1.05282C13.9385 1.03382 13.9151 1.02048 13.8894 1.01434C12.1734 0.594809 8.20869 2.08983 6.06065 4.23699C5.67752 4.61702 5.32825 5.02971 5.0168 5.47039C4.3544 5.4118 3.69199 5.46072 3.12744 5.70682C1.53457 6.40789 1.0708 8.23719 0.941604 9.0241C0.934276 9.06717 0.93704 9.11136 0.94968 9.15318C0.962319 9.195 0.984489 9.23332 1.01445 9.26512C1.0444 9.29692 1.08133 9.32134 1.12232 9.33646C1.16331 9.35157 1.20725 9.35697 1.25069 9.35223L3.8086 9.0701C3.81042 9.26295 3.82206 9.45558 3.84346 9.64725C3.85633 9.78035 3.91542 9.90473 4.01045 9.99881L5.00098 10.987C5.09514 11.0819 5.21948 11.141 5.35254 11.154C5.54314 11.1753 5.73469 11.1869 5.92647 11.1888L5.6458 13.7435C5.64112 13.787 5.64656 13.8309 5.6617 13.8718C5.67683 13.9128 5.70125 13.9497 5.73304 13.9796C5.76483 14.0096 5.80312 14.0317 5.84491 14.0444C5.88671 14.0571 5.93087 14.0599 5.97393 14.0526C6.75938 13.9266 8.59189 13.4629 9.28887 11.87C9.53496 11.3054 9.58535 10.6463 9.52852 9.98709C9.97026 9.67561 10.384 9.32625 10.7651 8.94295C12.9199 6.79901 14.4064 2.92274 13.9934 1.12157ZM8.61533 6.38533C8.41857 6.1887 8.28455 5.93813 8.23021 5.66532C8.17588 5.39251 8.20367 5.10972 8.31008 4.8527C8.41649 4.59569 8.59673 4.37601 8.82801 4.22145C9.05929 4.06689 9.33121 3.98439 9.60938 3.98439C9.88754 3.98439 10.1595 4.06689 10.3907 4.22145C10.622 4.37601 10.8023 4.59569 10.9087 4.8527C11.0151 5.10972 11.0429 5.39251 10.9885 5.66532C10.9342 5.93813 10.8002 6.1887 10.6034 6.38533C10.4729 6.51599 10.318 6.61965 10.1474 6.69037C9.97686 6.76109 9.79402 6.7975 9.60938 6.7975C9.42473 6.7975 9.24189 6.76109 9.07132 6.69037C8.90076 6.61965 8.74581 6.51599 8.61533 6.38533Z" fill="#0075FF"/>
<path d="M4.93362 11.7028C4.77307 11.8636 4.51555 11.9263 4.20559 11.9799C3.5092 12.0986 2.89426 11.4968 3.01936 10.7928C3.06711 10.5259 3.20832 10.1518 3.29621 10.0639C3.31542 10.045 3.32821 10.0206 3.33276 9.99411C3.3373 9.96759 3.33338 9.94031 3.32154 9.91615C3.3097 9.89199 3.29055 9.87217 3.26681 9.85951C3.24307 9.84685 3.21594 9.84199 3.18928 9.84563C2.79985 9.89327 2.43756 10.0698 2.16008 10.3472C1.47131 11.0365 1.40627 13.5945 1.40627 13.5945C1.40627 13.5945 3.96565 13.5294 4.65442 12.8401C4.93264 12.5628 5.10942 12.2 5.15627 11.81C5.16711 11.6875 5.01799 11.6146 4.93362 11.7028Z" fill="#0075FF"/>
</svg>
